<?xml version="1.0" standalone="no"?>
        <!DOCTYPE svg PUBLIC "-//W3C//DTD SVG 1.1//EN" 
        "http://www.w3.org/Graphics/SVG/1.1/DTD/svg11.dtd"><svg id="changeColor" fill="#DC7633" xmlns="http://www.w3.org/2000/svg" xmlns:xlink="http://www.w3.org/1999/xlink" width="200" zoomAndPan="magnify" viewBox="0 0 375 374.9999" height="200" preserveAspectRatio="xMidYMid meet" version="1.0"><defs>&lt;<path id="pathAttribute" d="M 77 246 L 344 246 L 344 354.949219 L 77 354.949219 Z M 77 246" fill="#ff0000"></path><path id="pathAttribute" d="M 21 147 L 354.949219 147 L 354.949219 306 L 21 306 Z M 21 147 " fill="#ff0000"></path><path id="pathAttribute" d="M 25 13.699219 L 292 13.699219 L 292 123 L 25 123 Z M 25 13.699219 " fill="#ff0000"></path><path id="pathAttribute" d="M 13.699219 63 L 348 63 L 348 221 L 13.699219 221 Z M 13.699219 63 " fill="#ff0000"></path></defs><g><path id="pathAttribute" d="M 343.425781 246.175781 L 77.542969 317.421875 C 106.78125 340.914062 143.914062 354.980469 184.34375 354.980469 C 256.773438 354.980469 318.65625 309.851562 343.425781 246.175781 Z M 343.425781 246.175781 " fill-opacity="1" fill-rule="nonzero" fill="#ff0000"></path></g><g><path id="pathAttribute" d="M 351.03125 147.730469 L 21.664062 235.984375 C 30.023438 262.34375 44.609375 285.9375 63.699219 305.019531 L 349.195312 228.523438 C 352.960938 214.429688 354.984375 199.621094 354.984375 184.34375 C 354.984375 171.773438 353.613281 159.527344 351.03125 147.730469 Z M 351.03125 147.730469 " fill-opacity="1" fill-rule="nonzero" fill="#ff0000"></path></g><g clip-path="url(#id3)"><path id="pathAttribute" d="M 25.257812 122.507812 L 291.140625 51.261719 C 261.902344 27.769531 224.769531 13.699219 184.339844 13.699219 C 111.910156 13.699219 50.027344 58.832031 25.257812 122.507812 Z M 25.257812 122.507812 " fill-opacity="1" fill-rule="nonzero" fill="#ff0000"></path></g><g clip-path="url(#id4)"><path id="pathAttribute" d="M 304.984375 63.664062 L 19.488281 140.160156 C 15.722656 154.253906 13.699219 169.0625 13.699219 184.339844 C 13.699219 196.910156 15.070312 209.15625 17.652344 220.953125 L 347.019531 132.699219 C 338.65625 106.335938 324.074219 82.746094 304.984375 63.664062 Z M 304.984375 63.664062 " fill-opacity="1" fill-rule="nonzero" fill="#ff0000"></path></g><g id="inner-icon" transform="translate(85, 75)"> <svg xmlns="http://www.w3.org/2000/svg" width="199.8" height="199.8" fill="currentColor" class="bi bi-play" viewBox="0 0 16 16" id="IconChangeColor"> <path d="M10.804 8 5 4.633v6.734L10.804 8zm.792-.696a.802.802 0 0 1 0 1.392l-6.363 3.692C4.713 12.69 4 12.345 4 11.692V4.308c0-.653.713-.998 1.233-.696l6.363 3.692z" id="mainIconPathAttribute"></path> </svg> </g></svg>